Coordinates
version=1
nRows=65
nColumns=12
inDegrees=yes

Units are S.I. units (second, meters, Newtons, ...)
Angles are in degrees

endheader
time	SC_y	SC_z	SC_x	AC_y	AC_z	AC_x	GH_y	GH_z	GH_yy	EL_x	PS_y
       0.0              -22.06          31.34          17.17          48.47         -18.67          1.039          82.97         -18.54         -4.782           56.9          102.3
   0.04201              -22.06          31.34          17.17          48.47         -18.67          1.039          82.98         -18.54         -4.795          56.89          102.3
   0.08402              -22.06          31.33          17.17          48.47         -18.67          1.039          82.98         -18.53          -4.81          56.88          102.3
     0.126              -22.06          31.33          17.17          48.47         -18.67          1.039          82.99         -18.52         -4.825          56.88          102.3
     0.168              -22.06          31.33          17.17          48.47         -18.67          1.039          82.99         -18.51         -4.842          56.87          102.3
      0.21              -22.06          31.33          17.17          48.47         -18.67          1.039           83.0          -18.5         -4.859          56.86          102.3
     0.252              -22.06          31.33          17.16          48.46         -18.67          1.039           83.0         -18.48         -4.878          56.85          102.3
    0.2941              -22.06          31.33          17.16          48.46         -18.67          1.038          83.01         -18.47         -4.898          56.84          102.3
    0.3361              -22.07          31.32          17.16          48.46         -18.67          1.038          83.01         -18.46         -4.919          56.83          102.3
    0.3781              -22.07          31.32          17.16          48.46         -18.67          1.038          83.02         -18.44         -4.942          56.81          102.3
    0.4201              -22.07          31.32          17.15          48.46         -18.67          1.038          83.03         -18.43         -4.967           56.8          102.3
    0.4621              -22.07          31.32          17.15          48.46         -18.67          1.038          83.04         -18.41         -4.994          56.79          102.2
    0.5041              -22.07          31.31          17.15          48.46         -18.67          1.038          83.04          -18.4         -5.022          56.77          102.2
    0.5461              -22.07          31.31          17.14          48.46         -18.67          1.038          83.05         -18.38         -5.053          56.75          102.2
    0.5881              -22.07          31.31          17.14          48.46         -18.67          1.038          83.06         -18.36         -5.087          56.74          102.2
    0.6301              -22.07           31.3          17.13          48.46         -18.67          1.038          83.07         -18.33         -5.123          56.72          102.2
    0.6721              -22.07           31.3          17.13          48.46         -18.68          1.038          83.08         -18.31         -5.163           56.7          102.2
    0.7141              -22.07           31.3          17.12          48.45         -18.68          1.038           83.1         -18.28         -5.205          56.67          102.2
    0.7561              -22.07          31.29          17.12          48.45         -18.68          1.038          83.11         -18.25         -5.252          56.65          102.2
    0.7982              -22.07          31.29          17.11          48.45         -18.68          1.038          83.13         -18.22         -5.304          56.62          102.2
    0.8402              -22.07          31.28          17.11          48.45         -18.68          1.038          83.14         -18.19          -5.36          56.59          102.2
    0.8822              -22.07          31.28           17.1          48.45         -18.68          1.038          83.16         -18.15         -5.422          56.56          102.2
    0.9242              -22.08          31.27          17.09          48.44         -18.68          1.038          83.18          -18.1         -5.491          56.52          102.2
    0.9662              -22.08          31.26          17.08          48.44         -18.68          1.037           83.2         -18.06         -5.567          56.48          102.2
     1.008              -22.08          31.25          17.07          48.44         -18.68          1.037          83.23         -18.01         -5.651          56.44          102.2
      1.05              -22.08          31.25          17.06          48.44         -18.68          1.037          83.26         -17.95         -5.746          56.39          102.2
     1.092              -22.08          31.24          17.05          48.43         -18.68          1.037          83.29         -17.88         -5.851          56.33          102.1
     1.134              -22.09          31.23          17.03          48.43         -18.68          1.037          83.32         -17.81          -5.97          56.27          102.1
     1.176              -22.09          31.21          17.02          48.42         -18.68          1.037          83.36         -17.73         -6.104           56.2          102.1
     1.218              -22.09           31.2           17.0          48.42         -18.69          1.036          83.41         -17.63         -6.257          56.12          102.1
      1.26              -22.09          31.18          16.98          48.41         -18.69          1.036          83.46         -17.52         -6.431          56.03          102.1
     1.302               -22.1          31.16          16.95          48.41         -18.69          1.036          83.52          -17.4          -6.63          55.92          102.1
     1.344               -22.1          31.14          16.93           48.4         -18.69          1.035          83.58         -17.26         -6.861           55.8          102.0
     1.386              -22.11          31.12          16.89          48.39          -18.7          1.035          83.66         -17.09         -7.129          55.66          102.0
     1.428              -22.11          31.09          16.86          48.38          -18.7          1.034          83.75          -16.9         -7.442          55.49          102.0
      1.47              -22.12          31.05          16.81          48.37          -18.7          1.034          83.86         -16.67         -7.812           55.3          101.9
     1.512              -22.13          31.01          16.76          48.35         -18.71          1.033          83.99          -16.4         -8.251          55.07          101.9
     1.554              -22.14          30.96           16.7          48.34         -18.71          1.032          84.15         -16.07         -8.777          54.79          101.8
     1.596              -22.15           30.9          16.62          48.31         -18.72          1.031          84.33         -15.68         -9.414          54.45          101.7
     1.638              -22.17          30.83          16.53          48.29         -18.73           1.03          84.56         -15.19         -10.19          54.04          101.7
      1.68              -22.19          30.74          16.41          48.26         -18.74          1.028          84.84          -14.6         -11.15          53.53          101.5
     1.722              -22.21          30.63          16.27          48.22         -18.75          1.026          85.19         -13.86         -12.35           52.9          101.4
     1.764              -22.24          30.49          16.09          48.17         -18.76          1.024          85.64         -12.92         -13.86          52.11          101.2
     1.806              -22.28          30.31          15.86           48.1         -18.78          1.021           86.2         -11.74         -15.77          51.09          101.0
     1.848              -22.33          30.08          15.57          48.02         -18.81          1.017          86.92         -10.22         -18.23           49.8          100.7
      1.89              -22.39          29.78          15.19          47.92         -18.84          1.012          87.84         -8.266         -21.38          48.13          100.4
     1.932              -22.47          29.41          14.71          47.79         -18.88          1.005          89.02         -5.775          -25.4          46.01          99.92
     1.974              -22.57          28.93           14.1          47.62         -18.94         0.9967          90.51         -2.643         -30.45          43.34          99.35
     2.016              -22.69          28.35          13.36          47.41          -19.0         0.9866          92.32          1.174         -36.62          40.09          98.64
     2.058              -22.83          27.69          12.51          47.18         -19.07         0.9749          94.41          5.598         -43.76          36.31          97.83
       2.1              -22.98          26.96          11.58          46.92         -19.15         0.9623          96.68          10.39          -51.5          32.23          96.95
     2.142              -23.13          26.24          10.66          46.67         -19.23         0.9496          98.95          15.18         -59.23          28.14          96.07
     2.184              -23.27          25.57          9.804          46.43         -19.31         0.9379          101.1           19.6         -66.37          24.37          95.25
     2.226              -23.39          24.99          9.066          46.23         -19.37         0.9278          102.9          23.42         -72.54          21.12          94.55
     2.268              -23.49          24.52          8.461          46.06         -19.42         0.9196          104.3          26.55         -77.59          18.44          93.97
      2.31              -23.57          24.14           7.98          45.93         -19.47          0.913          105.5          29.04         -81.62          16.32          93.51
     2.352              -23.63          23.84          7.603          45.82          -19.5         0.9078          106.4          30.99         -84.76          14.66          93.16
     2.394              -23.68          23.61          7.309          45.74         -19.52         0.9038          107.2          32.51         -87.22          13.36          92.88
     2.436              -23.72          23.43           7.08          45.68         -19.54         0.9007          107.7           33.7         -89.14          12.35          92.66
     2.478              -23.75          23.29          6.899          45.63         -19.56         0.8982          108.2          34.64         -90.64          11.55          92.49
      2.52              -23.77          23.18          6.756          45.59         -19.57         0.8963          108.5          35.38         -91.84          10.92          92.35
     2.563              -23.79          23.09          6.641          45.56         -19.58         0.8947          108.8          35.97          -92.8          10.41          92.24
     2.605               -23.8          23.02          6.548          45.53         -19.59         0.8934          109.0          36.45         -93.58           10.0          92.15
     2.647              -23.82          22.96          6.472          45.51          -19.6         0.8924          109.2          36.85         -94.21          9.667          92.08
     2.689              -23.83          22.91          6.409          45.49          -19.6         0.8915          109.4          37.17         -94.74          9.389          92.02
